4d546864000000060001000601e0554e6b6e0000003000ff031957696b69
7065646961204d4944492028657874656e6465642900ff510307a12000ff
58040402180800ff2f00554e6b6e0000052400ff03044261737300b00079
00200000c02100902d4e8200802d4083509030518170324f04803040816c
903444108032406e34408262902d52853e802d4012902b3e834a802b4016
902d50820c802d408534902d588118802d40843890304d81188030405890
325a8170344b02803240813e34408220902d4b8550304d08802d40834230
4016902d4e8132802d40860e902d508124802d404c902d4e8118802d4082
48902b50814c802b4024902d4c8118802d4058902d4e8100802d40826090
2b4b815a802b4016902d4c8118802d4058902d4c8116802d40824a903046
8550324508803040812c3240822c902d4f810c802d4064902d4e810c802d
408254902b4a8168802b4008902d4b8130802d4040902d4e8118802d4082
23d00425902b4a8158802b4018902d4b8124802d404c902d498158802d40
1890304a81702d4c1080304085702d4082af30902d4e8200802d40835090
30518170324f04803040816c903444108032406e34408262902d52853e80
2d4012902b3e834a802b4016902d50820c802d408534902d588118802d40
843890304d81188030405890325a8170344b02803240813e34408220902d
4b8550304d08802d408342304016902d4e8132802d40860e902d50812480
2d404c902d4e8118802d408248902b50814c802b4024902d4c8118802d40
58902d4e8100802d408260902b4b815a802b4016902d4c8118802d405890
2d4c8116802d40824a9030468550324508803040812c3240822c902d4f81
0c802d4064902d4e810c802d408254902b4a8168802b4008902d4b813080
2d4040902d4e8118802d408223d00425902b4a8158802b4018902d4b8124
802d404c902d498158802d401890304a81702d4c1080304085702d40bf30
902d508124802d404c902d4e8118802d408248902b50814c802b4024902d
4c8118802d4058902d4e8100802d408260902b4b815a802b4016902d4c81
18802d4058902d4c8116802d40824a9030468550324508803040812c3240
822c902d4f810c802d4064902d4e810c802d408254902b4a8168802b4008
902d4b8130802d4040902d4e8118802d408223d00425902b4a8158802b40
18902d4b8124802d404c902d498158802d401890304a81702d4c10803040
85702d40fb30902d4e8200802d4083509030518170324f04803040816c90
3444108032406e34408262902d52853e802d4012902b3e834a802b401690
2d50820c802d408534902d588118802d40843890304d8118803040589032
5a8170344b02803240813e34408220902d4b8550304d08802d4083423040
16902d4e8132802d40860e902d508124802d404c902d4e8118802d408248
902b50814c802b4024902d4c8118802d4058902d4e8100802d408260902b
4b815a802b4016902d4c8118802d4058902d4c8116802d40824a90304685
50324508803040812c3240822c902d4f810c802d4064902d4e810c802d40
8254902b4a8168802b4008902d4b8130802d4040902d4e8118802d408223
d00425902b4a8158802b4018902d4b8124802d404c902d498158802d4018
90304a81702d4c1080304085702d40833090326d7532007b327283603072
183200812e30002a326d6732008109326d835e3200023078815330001d2d
726f2d0081012d6883602b781a2d00810e2b00482d72782d00782d68815d
2d00132b68815f2b00112b4281142b005c284a810228006e286882702800
70286d813128003f2c78813d2c0033286d810f2800612c7881642c000c2f
5f811f2f00512d7c810f2d00612d6d81262d004a2868813528003b2b6281
372b00392d7882152d0000ff2f00554e6b6e0000078c00ff03055069616e
6f00b1007900200000c100849c00912d7c00397883072d00513900083c78
0040727c3c00024000723078003c7281383c0026300012326d003e6d8142
3e00183200163478003c7c00407f81164000213c0002340082272d7f0039
6283603c7200406d2c39007a4000013c00182d00312b7f00377c81703b78
003e725c3b001e3e000e3700682d7f00397c262b003a2d002b3900652868
00346d78340008280070287200346d81352800143400272b720037788134
37000c2b00302d7c00397881572d00815d39002c2d7c003c7c0040787e3c
000e4000643072003c68042d00812f3c002330001a3272003e6d81513200
073e0018347c003c7200406d81033400033c000040008201d10559912d78
003472003978003c7f815f2d0082012d725f3400183900493c00302f7900
347200386d003b7f042d0081003b000438001d3400492f0081722d7f0030
7800347800397f817b39001e3000033400542d0084503c7200407800457c
5c4000053c0006450081093c6d00407200457882314000403c005c450013
3b62003e68004372563e001e3b00394300433c680040720045784e450009
3c0003400081163c6d00405f004578815c4000383c0081474500053b6200
3e7200436d5d3b00133e003443004c3c7200407200457c5845001140000a
3c007d3c6800406d00457c733c000945000b40008259407200436d00487f
837540005d430035480049445800477c004a7f81344400354a000f470081
683c620040620045725f3c0007450002400081083c680040620045688113
4500003c00124000823b3b62003e6d004372814d3b001a4300093c680040
680045722b3e001e3c000345000f400081153c6d00406d00457881443c00
0245001240008128d1033e0422913b6d003e7200436d815f3b000e430003
3c5800405800457c143e003f45000b4000033c00173c5b00456878406205
3c000a45004f40008112407800457800487881334000164800044500233c
7800407800457f824e4000083c000d4500fe4d2d7c00397883072d005139
00083c780040727c3c00024000723078003c7281383c0026300012326d00
3e6d81423e00183200163478003c7c00407f81164000213c000234008227
2d7f00396283603c7200406d2c39007a4000013c00182d00312b7f00377c
81703b78003e725c3b001e3e000e3700682d7f00397c262b003a2d002b39
0065286800346d78340008280070287200346d81352800143400272b7200
3778813437000c2b00302d7c00397881572d00815d39002c2d7c003c7c00
40787e3c000e4000643072003c68042d00812f3c002330001a3272003e6d
81513200073e0018347c003c7200406d81033400033c000040008201d105
59912d78003472003978003c7f815f2d0082012d725f3400183900493c00
302f7900347200386d003b7f042d0081003b000438001d3400492f008172
2d7f00307800347800397f817b39001e3000033400542d0084503c720040
7800457c5c4000053c0006450081093c6d00407200457882314000403c00
5c4500133b62003e68004372563e001e3b00394300433c68004072004578
4e4500093c0003400081163c6d00405f004578815c4000383c0081474500
053b62003e7200436d5d3b00133e003443004c3c7200407200457c584500
1140000a3c007d3c6800406d00457c733c000945000b4000825940720043
6d00487f837540005d430035480049445800477c004a7f81344400354a00
0f470081683c620040620045725f3c0007450002400081083c6800406200
456881134500003c00124000823b3b62003e6d004372814d3b001a430009
3c680040680045722b3e001e3c000345000f400081153c6d00406d004578
81443c000245001240008128d1033e0422913b6d003e7200436d815f3b00
0e4300033c5800405800457c143e003f45000b4000033c00173c5b004568
784062053c000a45004f4000811240780045780048788133400016480004
4500233c7800407800457f824e4000083c000d4500864d2678003978003e
6d00417800457c827839001226005629780039784845000c41000a3e0046
29004c2d72003e7200417c004578815d2d00812e39005526780039720e45
00143e00174100810d26002a3272003e7200417c00457c4b390081043200
212d7800396d174500013e00134100302d00253900702d78003978003c62
00407800457c81612d000f3072811339005b300002346e00397881073900
0845000e4000043c004d340002397800397281323900822e2d78003c7200
407800457c5a39006a2d002c3478003978810c3900013c00313400323078
0039684b40000c300035390064287800387c003b7f4045005c2800542868
81172800592c7c004072004472693b00133800232c0051286200385b003b
62812e280030380012326d00345b213b004a32001934003c40001d440013
2f6d00386d003b7881172f00592c7800407c0044720e3b0043380081012c
001e2868003858003b6d7c38000328000c3b000840001344004a2d780039
7c003c6d00407800457881332d00813528721c4000263c000e4500033900
25387200407800447230280081402d7c1440001244002f3800762d002537
78003972003c7c004072593700820b4000013c000e39006d217c816e2100
00ff2f00554e6b6e000002bb00ff030b48692d686174206f6e6c7900b900
7800200000c90081f000992a5958892a408118992e6072892e407e992a60
32892a40813e992e68810a892e4066992a6d4a892a408126992a5c34892a
4044992a5440892a4038992a723e892a408132992a6026892a4052992a4f
32892a4046992a724a892a408126992e5c813e892e4032992a683e892a40
8132992e648140892e4030992a684a892a408126992a593e892a403a992a
683e892a403a992a5458892a408118992a5930892a4048992a5130892a40
48992a683e892a408132992e608130892e4040992a6840892a408130992e
598118892e4058992a6440892a408130992a5124892a4054992a4932892a
4046992a5c3c892a408134992a5c32892a4046992a4d30892a4048992a68
32892a40813e992e5c8116892e405a992a643e892a408132992e5c810a89
2e4066992a5c32892a4046992a5440892a4038992a6432892a4046992e5c
4c892e402c992a6d64892a4083a67c992a5958892a408118992e6072892e
407e992a6032892a40813e992e68810a892e4066992a6d4a892a40812699
2a5c34892a4044992a5440892a4038992a723e892a408132992a6026892a
4052992a4f32892a4046992a724a892a408126992e5c813e892e4032992a
683e892a408132992e648140892e4030992a684a892a408126992a593e89
2a403a992a683e892a403a992a5458892a408118992a5930892a4048992a
5130892a4048992a683e892a408132992e608130892e4040992a6840892a
408130992e598118892e4058992a6440892a408130992a5124892a405499
2a4932892a4046992a5c3c892a408134992a5c32892a4046992a4d30892a
4048992a6832892a40813e992e5c8116892e405a992a643e892a40813299
2e5c810a892e4066992a5c32892a4046992a5440892a4038992a6432892a
4046992e5c4c892e402c992a6d64892a4000ff2f00554e6b6e00000c5700
ff03054472756d7300b9007800200000c900f80099246178892440826899
265e81708926400099245e8234892440812c99245e811889244058992665
814a892640821699245a811a892440824699266381702458028926408270
24406e99245e815a89244016992661814c8926402499244f588924408118
9924658126892440823a99265e817024610289264082222440813c992463
810089244070992665814089264082209924658124892440823c99266381
70892640009924618258892440810899245e748924407c992665810c8926
40825499245c66892440810a9924554e892440812299265e813e89264032
99246572892440864e99244f408924408130992465728924407e99246158
892440811899266b814c89264024992468820c892440815499245e408924
40813099266b81248926404c99244a58892440811899245c66892440810a
9924554e892440812299265e813e8926403299246572892440864e99244f
37d9040703028924408130992465728924407e9924615889244081189926
6b814c89264024992468820c892440815499245e40892440813099266b81
248926404c99244a58892440bd18992461002a5958892a4020244078992e
6072892e407e99265e002a6032892a40813e26400099245e002e68810a89
2e4066992a6d44892440062a40812699245e002a5c34892a4044992a5420
892440202a4038992665002a723e892a40810c264026992a6026892a4052
992a4f32892a404699245a002a724a892a4050244056992e5c813e892e40
32992663002a683e892a408132992458002e6402892640813e2e4030992a
684a892a403824406e99245e002a593e892a403a992a683e892a40242440
16992661002a5458892a407426402499244f002a5930892a402824402099
2a5130892a4048992465002a683e892a406824404a992e608130892e4040
99265e002a6840892a408130992461002e590289264081162e4058992a64
348924400c2a408130992463002a5124892a4054992a49088924402a2a40
46992665002a5c3c892a408104264030992a5c32892a4046992a4d30892a
4048992465002a6832892a407224404c992e5c8116892e405a992663002a
643e892a408132264000992461002e5c810a892e4066992a5c32892a4036
244010992a5440892a403899245e002a6432892a4042244004992e5c4c89
2e402c992665002a6d64892a40282640825499245c002a5958892a400e24
40810a992455002e604e892440242e407e99265e002a6032892a40810c26
4032992465002e6872892440182e4066992a6d4a892a408126992a5c3489
2a4044992a5440892a4038992a723e892a40813299244f002a6026892a40
1a244038992a4f32892a4046992465002a724a892a402824407e99246100
2e5c58892440662e403299266b002a683e892a40810e264024992468002e
648140892e4030992a681c8924402e2a40812699245e002a593e892a4002
244038992a683e892a403a99266b002a5458892a404c26404c99244a002a
5930892a4028244020992a5130892a404899245c002a683e892a40282440
810a992455002e604e892440622e404099265e002a6840892a407e264032
992465002e5972892440262e4058992a6440892a408130992a5124892a40
54992a4932892a4046992a5c3c892a40813499244f002a5c32892a4005d9
0407030289244038992a4d30892a4048992465002a6832892a404024407e
992461002e5c588924403e2e405a99266b002a643e892a40810e26402499
2468002e5c810a892e4066992a5c1c892440162a4046992a5440892a4038
99245e002a6432892a400e244038992e5c4c892e402c99266b002a6d6489
2a404026404c99244a58892440811899246178892440826899265e817089
26400099245e8234892440812c99245e811889244058992665814a892640
821699245a811a89244082469926638170245802892640827024406e9924
5e815a89244016992661814c8926402499244f5889244081189924658126
892440823a99265e817024610289264082222440813c9924638100892440
70992665814089264082209924658124892440823c992663817089264000
9924618258892440810899245e748924407c992665810c89264082549924
5c66892440810a9924554e892440812299265e813e892640329924657289
2440864e99244f408924408130992465728924407e992461588924408118
99266b814c89264024992468820c892440815499245e4089244081309926
6b81248926404c99244a58892440811899245c66892440810a9924554e89
2440812299265e813e8926403299246572892440864e99244f37d9040703
028924408130992465728924407e99246158892440811899266b814c8926
4024992468820c892440815499245e40892440813099266b81248926404c
99244a5889244081f118992461002a5958892a4020244078992e6072892e
407e99265e002a6032892a40813e26400099245e002e68810a892e406699
2a6d44892440062a40812699245e002a5c34892a4044992a542089244020
2a4038992665002a723e892a40810c264026992a6026892a4052992a4f32
892a404699245a002a724a892a4050244056992e5c813e892e4032992663
002a683e892a408132992458002e6402892640813e2e4030992a684a892a
403824406e99245e002a593e892a403a992a683e892a4024244016992661
002a5458892a407426402499244f002a5930892a4028244020992a513089
2a4048992465002a683e892a406824404a992e608130892e404099265e00
2a6840892a408130992461002e590289264081162e4058992a6434892440
0c2a408130992463002a5124892a4054992a49088924402a2a4046992665
002a5c3c892a408104264030992a5c32892a4046992a4d30892a40489924
65002a6832892a407224404c992e5c8116892e405a992663002a643e892a
408132264000992461002e5c810a892e4066992a5c32892a403624401099
2a5440892a403899245e002a6432892a4042244004992e5c4c892e402c99
2665002a6d64892a40282640825499245c002a5958892a400e2440810a99
2455002e604e892440242e407e99265e002a6032892a40810c2640329924
65002e6872892440182e4066992a6d4a892a408126992a5c34892a404499
2a5440892a4038992a723e892a40813299244f002a6026892a401a244038
992a4f32892a4046992465002a724a892a402824407e992461002e5c5889
2440662e403299266b002a683e892a40810e264024992468002e64814089
2e4030992a681c8924402e2a40812699245e002a593e892a400224403899
2a683e892a403a99266b002a5458892a404c26404c99244a002a5930892a
4028244020992a5130892a404899245c002a683e892a40282440810a9924
55002e604e892440622e404099265e002a6840892a407e26403299246500
2e5972892440262e4058992a6440892a408130992a5124892a4054992a49
32892a4046992a5c3c892a40813499244f002a5c32892a4005d904070302
89244038992a4d30892a4048992465002a6832892a404024407e99246100
2e5c588924403e2e405a99266b002a643e892a40810e264024992468002e
5c810a892e4066992a5c1c892440162a4046992a5440892a403899245e00
2a6432892a400e244038992e5c4c892e402c99266b002a6d64892a404026
404c99244a588924408118992468002a647c240072892a4002992455002a
648118240056892a4002992678002a64811f26004f892a4002992468002a
647b240073892a4002992458002a647f24006f892a4002992452002a6473
24007b892a4002992672002a64812326004b892a400299245b002a647524
0079892a4002992468002a648107240067892a4002992446002a646d2400
8101892a4002992672002a64810f26005f892a4002992472002a64815f24
000f892a4002992a64816e892a4002992468002a64811b240053892a4002
99267f002a64811e260050892a4002992447002a64512400811d892a4002
99246d002a64813d240031892a4002992a64816e892a4002992678002a64
812b260043892a400299246d002a64811f24004f892a4002992a64816e89
2a400299246d002a64812b240043892a400299266d002a64812526004989
2a4002992455002a646c24008102892a400299246d002a64810424006a89
2a4002992452002a647424007a892a4002992668002a64812226004c892a
4002992462002a64810024006e892a4002992468002a646c24008102892a
4002992a64816e892a4002992a6400377c5637008118892a4002992a6481
6e892a4000ff2f00554e6b6e000004cc00ff030b4a617a7a204775697461
7200b2007900200000c21a85940092345f00396285503c5f81703e682934
002e3c00811940722a3e003839008276400008345f003968854139000f37
6283603962733700816e3400826f34621c3900811a34003a345800396885
503c582a390081263400093c00173958003e6881704072103e00823e3900
66d20416041492400002346d003968830b340040390082053762003c7283
223700283c0016346200396d83523900023400836c395b003c6277390079
395f00405881223c004e4558094000816737680040581139001745008121
370027395f003c460f40006d390074396200405881373c0039455f2e4000
814237720040520939007345004937002b3962003c4a0240007e39007039
6800405f543c00811b400001456281703c5f00405f0639001a450081503c
4a1c40008154405f4f3c00393c00683e62004568134000815d405b184500
1b3e00813d395f003c5f2040005539007b396800405f443c00812c455f15
4000814c39000f376d004055204500812137002f3962003c5f0b40006339
008102396800405b403c008130455f134000812dd2043092376d00405831
4500013900810037003e3968003c5b1940005439008103395f00405f7e3c
00723c680045550639001d4000814d3c00003968004058813645003a3c50
2a40008146405f5f3c008111455b0139001f40008150405f104500815040
0010345f00396285503c5f81703e682934002e3c00811940722a3e003839
008276400008345f003968854139000f376283603962733700816e340082
6f34621c3900811a34003a345800396885503c582a390081263400093c00
173958003e6881704072103e00823e390066d20416041492400002346d00
3968830b340040390082053762003c7283223700283c0016346200396d83
523900023400836c395b003c6277390079395f00405881223c004e455809
4000816737680040581139001745008121370027395f003c460f40006d39
0074396200405881373c0039455f2e400081423772004052093900734500
4937002b3962003c4a0240007e390070396800405f543c00811b40000145
6281703c5f00405f0639001a450081503c4a1c40008154405f4f3c00393c
00683e62004568134000815d405b1845001b3e00813d395f003c5f204000
5539007b396800405f443c00812c455f154000814c39000f376d00405520
4500812137002f3962003c5f0b40006339008102396800405b403c008130
455f134000812dd2043092376d004058314500013900810037003e396800
3c5b1940005439008103395f00405f7e3c00723c680045550639001d4000
814d3c00003968004058813645003a3c502a40008146405f5f3c00811145
5b0139001f40008150405f10450081504000103e628170415f81463e002a
41000045558170416281604100103e5b1045008160416881704552144100
815c4162313e00813541000a3c4e3e45008132405581463c002a45553c40
008134406281694000073c505d45008113405881493c0027455b1f400081
51405b324500813e3b5b124000815e4068817044622f4000814140621c3b
00813844001c3b5b0e400081624055814640002a4468817040621d3b0031
4400811d4000054572817040557c45004b4000293c628170405281623c00
0e39621a40008403390000ff2f00
